<svg width="29" height="29" viewBox="0 0 29 29" fill="none" xmlns="http://www.w3.org/2000/svg">
<path d="M13.2857 13.1371C10.9158 15.1385 10.6496 21.6398 12.6027 23.9524C13.4823 24.9939 14.8079 24.9405 16.1488 23.8081C17.6063 22.5771 17.9367 21.0158 19.1057 20.0286C20.2848 19.0328 21.8821 18.9662 23.3268 17.7461C24.6677 16.6137 24.9423 15.3158 24.0627 14.2742C22.1097 11.9616 15.6556 11.1357 13.2857 13.1371ZM8.57246 16.4727C7.38878 15.7007 5.86701 15.8386 5.17337 16.7802C4.47973 17.7218 4.87712 19.1108 6.0608 19.8828C7.24448 20.6548 8.76625 20.5169 9.45988 19.5753C10.1535 18.6337 9.75614 17.2447 8.57246 16.4727ZM10.5771 13.7173C11.2953 12.6946 10.7038 11.057 9.2561 10.0595C7.80841 9.06213 6.05285 9.08296 5.33464 10.1057C4.61643 11.1284 5.20795 12.766 6.65564 13.7634C8.10333 14.7609 9.85944 14.7401 10.5771 13.7173ZM18.2354 5.74966C17.1909 6.27588 16.8006 7.75284 17.3632 9.0493C17.9262 10.3455 19.229 10.9698 20.2735 10.4436C21.318 9.91738 21.7083 8.44041 21.1457 7.14395C20.5827 5.84774 19.2799 5.22345 18.2354 5.74966ZM14.3112 10.5638C15.4397 10.027 15.7541 8.29968 15.0131 6.70544C14.2721 5.11121 12.7569 4.25418 11.6281 4.79075C10.4993 5.32733 10.1852 7.05492 10.9262 8.64915C11.6672 10.2434 13.1826 11.1007 14.3112 10.5638Z" fill="#F8F8F8"/>
</svg>
